<svg xmlns="http://www.w3.org/2000/svg" width="645" height="92" viewBox="-151.995 -21.809 645 92">
  <path d="M435.88 27.906l.008-34.697c6.862-.653 14.108-.43 18.797 5.034 4.68 4.81 5.404 12.794 3.147 18.9-3.798 8.883-13.4 10.844-21.953 10.762zm56.943 38.602c-2.74.647-5.81-.246-8.234-1.467-10.57-6.84-17.68-18.005-23.732-28.278-1.856-2.688-2.495-6.025-4.925-8.307 4.032-1.385 7.826-4.56 10.812-8.067 4.527-5.46 4.208-14.752 1.06-20.695-4.846-8.405-14.46-9.294-23.26-9.62-8.71.567-26.386.08-26.386.08l-.022 1.43s3.975.44 5.67 1.098c1.367 1.223 1.777 2.85 1.937 4.723l.24 60.87c0 2.206.088 4.076-.878 5.788-1.54 2.04-4.045 3.016-6.71 2.94v1.3l25.567-.02.022-1.444s-3.31 0-4.522-.818c-2.408-1.55-3.225-4.32-3.225-7.166l-.075-27.468c3.056 0 6.137-.322 9.355-.48 1.127 1.868 2.19 3.82 3.14 5.778 6.14 10.352 11.157 21.673 21.886 29.165 6.372 3.84 15.172 3.753 22.346 1.797-.07-.4.335-.81-.07-1.136M248.08 27.906l.01-34.697c6.86-.653 14.107-.43 18.793 5.034 4.68 4.81 5.407 12.794 3.147 18.9-3.796 8.883-13.398 10.844-21.95 10.762zm48.71 37.135c-10.57-6.84-17.68-18.005-23.73-28.278-1.855-2.688-2.5-6.025-4.926-8.307 4.034-1.385 7.832-4.56 10.816-8.067 4.527-5.46 4.202-14.752 1.055-20.695-4.845-8.405-14.457-9.293-23.255-9.62-8.717.568-26.392.08-26.392.08l-.02 1.43s3.98.442 5.672 1.1c1.368 1.22 1.776 2.847 1.934 4.72l.242 60.87c0 2.207.09 4.077-.877 5.79-1.542 2.038-4.047 3.014-6.712 2.937v1.3l25.57-.02.02-1.443s-3.31 0-4.52-.818c-2.41-1.55-3.228-4.322-3.228-7.167l-.073-27.468c3.053 0 6.138-.322 9.354-.48 1.133 1.868 2.19 3.82 3.14 5.778 6.145 10.352 11.158 21.673 21.888 29.165 6.372 3.84 15.17 3.753 22.347 1.797-.074-.4.33-.81-.074-1.138-2.737.65-5.807-.245-8.23-1.466M-133.396 20.448c-2.754-2.03-6.313-3.892-7.678-7.31-2.04-4.61-1.88-10.702 1.766-14.668 4.372-4.46 11.648-5.367 17.296-2.84 4.784 1.856 8.5 6.207 8.816 11.552 1.527-.063 1.33.056 1.428.04-1.205-4.884-1.018-10.874-1.428-15.9-.228-.162-.403-.162-.554.084-3.478.063-6.42-.95-9.75-1.03l-1.57-.19c-9.305-1.13-18.195 2.92-22.977 11.2-3.216 5.767-3.544 14.832-.076 20.597 7.2 11.768 21.595 12.012 29.28 23.21 2.428 4.55 2.178 10.162-.73 14.365-3.96 5.445-11.004 7.063-17.39 5.19-6.46-1.372-12.366-7.545-13.83-13.863-.088 0-.89-.26-1.202 0 .73 5.596 1.29 11.513 1.37 17.196l.48-.242c11.237.423 23.867 4.553 33.24-2.763 6.79-5.188 10.35-12.9 9.058-21.665-1.945-12.905-16.258-17.188-25.55-22.962M395.978 62.838c-5.678 1.06-12.876 1.785-18.37-.342-2.415-1.044-4.775-3.292-4.7-6.114l.054-26.263c.098.206 10.83-.595 15.27.72 3.373 1.01 5.442 2.53 5.886 6.915l1.106.077V18.566s-1.156.07-1.628 0c0 1.208-.017 3.035-.522 4.263-.65 1.128-2.128 1.766-3.328 2.015-5.47.926-17.038.983-16.783.82v-30.83c5.955.086 13.058-.728 18.643 1.453 3.713 1.304 4.537 5.535 5.407 8.447.413-.072.892-.072 1.29-.325-.877-4.456-1.525-9.248-1.362-13.886-13.736-.644-41.98-.15-41.98-.15v1.312s2.497-.03 3.872.624c1.902.906 3.457 2.04 3.635 3.977v64.917s-.128 2.302-2.04 3.92c-2.01 1.687-3.983 2.35-6.514 1.687l.048 1.453c.115-.093 47.575.086 47.575.086h.816c.503-5.108 1.944-10.398 2.917-15.43l-1.463-.312c-.4 4.378-3.548 8.924-7.826 10.23M195.95-9.008l.02 1.485c-.02.02 3.04.14 4.503 1.23 1.466 1.054 2.265 2.338 2.506 3.885V51.14c-.414 3.57-1.754 6.733-3.867 9.59-5.912 5.743-15.532 5.824-22.65 2.41-5.335-2.584-8.406-8.43-9.47-13.933V-.78c.155-1.777.092-3.556 1.466-5.048 1.418-1.506 3.33-1.88 5.023-1.773.09-.495-.085-1.538-.085-1.538l-23.623.162.048 1.375s2.708.096 4.07.972c1.626 1.034 2.694 2.434 2.78 4.07.165 13.868-.06 42.32 0 42.51.165 7.537.372 15.093 4.75 20.925 7.846 10.07 22.643 10.885 34.215 7.556 10.672-4.06 15.588-15.407 15.588-26.457v-45.12s.208-1.416.65-2.192c1.265-2.187 3.604-2.31 6.088-2.168l-.028-1.628-21.986.124M92.075 62.9V-.45s-.388-3.768 1.016-5.313c1.486-1.64 3.043-1.64 5.446-1.43v-1.815l-22.58.033s.2 1.375.052 1.483c1.877.312 3.11.02 4.456 1.21C81.71-5.18 82.28-3.342 82.22-2.41v60.455s.255 3.99-.275 5.597c-1.027 3.145-4.21 3.433-7.077 3.58v1.29c7.435-.393 16.225-.08 24.068.157v-1.373c-1.533-.323-3.166.08-4.634-.902-1.36-.73-1.832-2.187-2.227-3.496M-45.878-6.895s3.183-.193 4.684 1.33l-.183-.297c1.047 1.054 1.385 2.638 1.463 4.108v48.198l-.462 6c-.903 4.8-4.12 10.148-8.98 11.693-6.226 2.587-13.575 1.44-18.776-2.51-5.41-3.976-6.624-10.4-6.4-16.66V-1.608c0-.198-.09-2.624.828-3.88 1.27-1.715 3.317-1.904 5.133-1.817l-.03-1.18c-7.442.07-23.575-.023-23.575-.023v1.316s3.36.318 4.886 1.143c1.863 1.355 1.54 4.044 1.698 6.33l.08 42.266c.085 9.248 2.667 20.597 12.79 24.68 10.016 4.126 24.165 4.38 32.817-3.09 6.408-5.35 8.022-13.31 8.256-21.113v-44.78s.09-1.85.655-2.842c1.164-2.086 3.175-3.047 5.532-2.593v-1.223l-20.415-.074v1.595"/>
  <path d="M131.834 60.145l-21.037-24.263-8.495-10.216 21.44-27.83c1.69-1.87 3.786-3.247 6.065-4.13.855-.665 4.03-1.305 4.03-1.305l-.063-1.12-21.764.065v1.57s3.32.464 4.442 1.75c1.956 2.357-.057 5.136-1.197 7.16L92.943 31.182l.64.653 17.526 21.34 9.894 11.367c6.404 7.062 17.383 5.02 25.786 3.648-.175-.58-.175-1.145-.402-1.633-5.897 1.875-10.357-2.602-14.554-6.412M-66.786-12.998c2.43 0 4.395-1.968 4.395-4.398 0-2.44-1.966-4.413-4.396-4.413-2.435 0-4.413 1.975-4.413 4.414.002 2.43 1.978 4.398 4.414 4.398M-49.632-12.998c2.412 0 4.393-1.968 4.393-4.398 0-2.44-1.98-4.413-4.392-4.413-2.427 0-4.395 1.975-4.395 4.414 0 2.43 1.968 4.398 4.395 4.398M46.917 53.174C40.92 61.372 32.13 64.3 22.753 65.092c0 .133-8.508.837-11.64-1.078-1.64-1.02-2.012-2.387-2.527-4.273V-2.31c.075-.758-.233-2.046.654-2.387 16.003-1.773 33.396 2.61 40.108 18.44 5.423 11.912 5.34 28.565-2.43 39.43zM24.93-8.416h-35.584l.04 1.09s3.936-.08 5.766 1.35c1.875 1.48 2.935 3.24 2.706 5.506 0 0 .122 55.955 0 56.07-.49 3.405.46 7.643-2.686 9.825-.654.733-1.738 1.58-2.955 1.822-.98.18-3.356.13-3.356.13l.03 1.435 36.768-.05c13.19-.168 25.233-6.025 32.912-17.54 7.518-10.23 7.84-27.103 1.938-38.217C53.794-.617 39.403-7.69 24.928-8.415M332.494 65.916c-1.138-.816-2.02-1.518-2.083-2.984v-2.237h.022L330.392-.2v-4.878c.633-3.15 6.638-3.124 6.638-3.124v-1.216H312.8V-7.9c-.09 0 3.375-.347 4.956.81 1.14.82 2.022 1.522 2.085 2.984V58.83l.02 1.228v3.847c-.63 3.15-6.63 3.123-6.63 3.123v1.22h24.224v-1.52c.085 0-3.38.347-4.96-.812"/>
</svg>
